<?xml version="1.0" encoding="utf-8"?>
<!-- Generator: Adobe Illustrator 24.0.0, SVG Export Plug-In . SVG Version: 6.00 Build 0)  -->
<svg version="1.1" id="Layer_1" xmlns="http://www.w3.org/2000/svg" xmlns:xlink="http://www.w3.org/1999/xlink" x="0px" y="0px"
	 viewBox="0 0 24 24" style="enable-background:new 0 0 24 24;" xml:space="preserve">
<style type="text/css">
	.st0{fill:#FFFFFF;}
</style>
<path class="st0" d="M12,21c-2.5,0-4.6-0.4-6.4-1.2S3,18.1,3,17V7c0-1.1,0.9-2,2.6-2.8S9.5,3,12,3s4.6,0.4,6.4,1.2
	C20.1,5,21,5.9,21,7v10c0,1.1-0.9,2.1-2.6,2.8S14.5,21,12,21z M12,9c1.5,0,3-0.2,4.5-0.6S18.8,7.5,19,7c-0.2-0.5-1-0.9-2.5-1.4
	S13.5,5,12,5c-1.5,0-3,0.2-4.5,0.6C6.1,6.1,5.2,6.5,5,7c0.2,0.5,1.1,1,2.5,1.4S10.5,9,12,9z M12,14c0.7,0,1.4,0,2-0.1
	c0.6-0.1,1.3-0.2,1.9-0.3c0.6-0.1,1.2-0.3,1.7-0.5s1-0.4,1.4-0.6v-3c-0.4,0.2-0.9,0.4-1.4,0.6c-0.5,0.2-1.1,0.3-1.7,0.5
	c-0.6,0.1-1.2,0.2-1.9,0.3C13.4,11,12.7,11,12,11s-1.4,0-2.1-0.1c-0.7-0.1-1.3-0.2-1.9-0.3s-1.1-0.3-1.7-0.5C5.9,10,5.4,9.8,5,9.5v3
	c0.4,0.2,0.9,0.4,1.4,0.6s1.1,0.3,1.7,0.5s1.2,0.2,1.9,0.3C10.6,14,11.3,14,12,14z M12,19c0.8,0,1.5-0.1,2.3-0.2
	c0.8-0.1,1.5-0.3,2.2-0.5c0.7-0.2,1.2-0.4,1.7-0.6c0.4-0.2,0.7-0.5,0.8-0.7v-2.5c-0.4,0.2-0.9,0.4-1.4,0.6s-1.1,0.3-1.7,0.5
	c-0.6,0.1-1.2,0.2-1.9,0.3C13.4,16,12.7,16,12,16s-1.4,0-2.1-0.1c-0.7-0.1-1.3-0.2-1.9-0.3s-1.1-0.3-1.7-0.5s-1-0.4-1.4-0.6V17
	c0.1,0.3,0.3,0.5,0.8,0.7c0.4,0.2,1,0.4,1.7,0.6c0.7,0.2,1.4,0.3,2.2,0.5C10.4,18.9,11.2,19,12,19z"/>
</svg>
