<?xml version="1.0" encoding="utf-8"?>
<!-- Generator: Adobe Illustrator 24.0.0, SVG Export Plug-In . SVG Version: 6.00 Build 0)  -->
<svg version="1.1" id="Layer_1" xmlns="http://www.w3.org/2000/svg" xmlns:xlink="http://www.w3.org/1999/xlink" x="0px" y="0px"
	 viewBox="0 0 24 24" style="enable-background:new 0 0 24 24;" xml:space="preserve">
<style type="text/css">
	.st0{fill:#FFFFFF;}
</style>
<path class="st0" d="M2.7,21c-0.2,0-0.4,0-0.5-0.1c-0.2-0.1-0.3-0.2-0.4-0.4S1.7,20.2,1.7,20c0-0.2,0-0.3,0.1-0.5l9.3-16
	c0.1-0.2,0.2-0.3,0.4-0.4C11.7,3,11.8,3,12,3c0.2,0,0.3,0,0.5,0.1c0.2,0.1,0.3,0.2,0.4,0.4l9.3,16c0.1,0.2,0.1,0.3,0.1,0.5
	c0,0.2-0.1,0.3-0.1,0.5c-0.1,0.1-0.2,0.3-0.4,0.4C21.6,21,21.5,21,21.3,21H2.7z M4.5,19h15.1L12,6L4.5,19z M12,18
	c0.3,0,0.5-0.1,0.7-0.3c0.2-0.2,0.3-0.4,0.3-0.7s-0.1-0.5-0.3-0.7C12.5,16.1,12.3,16,12,16s-0.5,0.1-0.7,0.3
	C11.1,16.5,11,16.7,11,17s0.1,0.5,0.3,0.7C11.5,17.9,11.7,18,12,18z M12,15c0.3,0,0.5-0.1,0.7-0.3S13,14.3,13,14v-3
	c0-0.3-0.1-0.5-0.3-0.7C12.5,10.1,12.3,10,12,10s-0.5,0.1-0.7,0.3C11.1,10.5,11,10.7,11,11v3c0,0.3,0.1,0.5,0.3,0.7S11.7,15,12,15z"
	/>
</svg>
